<?xml version="1.0" encoding="UTF-8"?> <svg xmlns="http://www.w3.org/2000/svg" xmlns:xlink="http://www.w3.org/1999/xlink" width="224.698" height="35.754" viewBox="0 0 224.698 35.754"><defs><clipPath id="clip-path"><rect id="Rectangle_13657" data-name="Rectangle 13657" width="224.698" height="35.754"></rect></clipPath></defs><g id="Group_43239" data-name="Group 43239" transform="translate(0 0)"><g id="Group_43237" data-name="Group 43237" transform="translate(0 0)" clip-path="url(#clip-path)"><path id="Path_17113" data-name="Path 17113" d="M.5,19.332A16.372,16.372,0,0,1,17.127,2.561,16.431,16.431,0,0,1,29.633,8.119l-4.888,4.744a9.663,9.663,0,0,0-7.427-3.5c-5.511,0-9.439,4.216-9.439,9.871,0,5.749,3.976,9.966,9.63,9.966a9.581,9.581,0,0,0,7.475-3.546L29.873,30.3a16.29,16.29,0,0,1-12.7,5.7A16.219,16.219,0,0,1,.5,19.332Z" transform="translate(-0.198 -1.013)" fill="none" stroke="#000" stroke-miterlimit="10" stroke-width="1"></path><rect id="Rectangle_13656" data-name="Rectangle 13656" width="6.421" height="34.02" transform="translate(30.873 0.302)" fill="none" stroke="#000" stroke-miterlimit="10" stroke-width="1"></rect><path id="Path_17114" data-name="Path 17114" d="M65.687,5.982a3.753,3.753,0,0,1,3.785-3.738A3.712,3.712,0,0,1,73.21,5.982a3.723,3.723,0,0,1-3.738,3.785A3.762,3.762,0,0,1,65.687,5.982Zm.575,7.187h6.421V35.21H66.262Z" transform="translate(-25.997 -0.888)" fill="none" stroke="#000" stroke-miterlimit="10" stroke-width="1"></path><path id="Path_17115" data-name="Path 17115" d="M82.1,19.886h6.181v2.635a7.624,7.624,0,0,1,6.277-3.306c4.792,0,8.29,3.929,8.29,9.056V41.927H96.429V29.852c0-2.923-1.533-4.792-3.929-4.792S88.523,27.025,88.523,30V41.927H82.1Z" transform="translate(-32.493 -7.605)" fill="none" stroke="#000" stroke-miterlimit="10" stroke-width="1"></path><path id="Path_17116" data-name="Path 17116" d="M120.009,5.982a3.753,3.753,0,0,1,3.785-3.738,3.712,3.712,0,0,1,3.738,3.738,3.722,3.722,0,0,1-3.738,3.785A3.762,3.762,0,0,1,120.009,5.982Zm.575,7.187H127V35.21h-6.421Z" transform="translate(-47.495 -0.888)" fill="none" stroke="#000" stroke-miterlimit="10" stroke-width="1"></path><path id="Path_17117" data-name="Path 17117" d="M134.441,30.954a11.7,11.7,0,0,1,12.027-11.739,12.166,12.166,0,0,1,9.584,4.5L151.6,27.984a6.217,6.217,0,0,0-5.128-2.683,5.283,5.283,0,0,0-5.462,5.558,5.321,5.321,0,0,0,5.51,5.654,6.529,6.529,0,0,0,5.319-2.779l4.456,4.312A12.808,12.808,0,0,1,146.42,42.6,11.644,11.644,0,0,1,134.441,30.954Z" transform="translate(-53.207 -7.605)" fill="none" stroke="#000" stroke-miterlimit="10" stroke-width="1"></path><path id="Path_17118" data-name="Path 17118" d="M170.445,30.624l4.888-4.073c1.677,2.97,3.881,4.456,6.564,4.456,2.444,0,4.073-1.294,4.073-3.211,0-1.772-1.246-2.875-5.079-4.552-5.941-2.635-8.529-5.7-8.529-10.158,0-5.654,4.36-9.584,10.445-9.584a12.825,12.825,0,0,1,10.3,5.223l-4.648,4.216c-1.772-2.347-3.5-3.45-5.654-3.45-2.108,0-3.45,1.15-3.45,2.923,0,1.964,1.677,3.066,4.983,4.5,6.037,2.683,8.625,5.846,8.625,10.3,0,5.894-4.5,9.919-11.021,9.919a12.9,12.9,0,0,1-11.5-6.517" transform="translate(-67.456 -1.386)"></path><path id="Path_17119" data-name="Path 17119" d="M209.144,31.944c0-6.8,4.839-11.787,11.5-11.787,6.228,0,10.972,4.5,10.972,10.732a13.475,13.475,0,0,1-.24,2.827H215.8c.623,2.683,2.731,4.312,5.846,4.312a7.916,7.916,0,0,0,5.941-2.636l3.4,3.786a13.123,13.123,0,0,1-9.967,4.361c-7,0-11.883-4.84-11.883-11.6m16.1-2.683c-.575-2.683-2.3-4.12-4.7-4.12a4.834,4.834,0,0,0-4.839,4.12Z" transform="translate(-82.772 -7.977)"></path><path id="Path_17120" data-name="Path 17120" d="M247.13,31.9a11.7,11.7,0,0,1,12.027-11.739,12.166,12.166,0,0,1,9.584,4.5l-4.456,4.265a6.217,6.217,0,0,0-5.128-2.683,5.283,5.283,0,0,0-5.462,5.558,5.321,5.321,0,0,0,5.511,5.654,6.529,6.529,0,0,0,5.318-2.779l4.456,4.312a12.808,12.808,0,0,1-9.871,4.552A11.644,11.644,0,0,1,247.13,31.9" transform="translate(-97.805 -7.977)"></path><path id="Path_17121" data-name="Path 17121" d="M285.274,20.828h6.181v2.827a6.289,6.289,0,0,1,5.8-3.5,6.818,6.818,0,0,1,1.725.192l-.767,6.8a6.923,6.923,0,0,0-2.3-.431c-2.683,0-4.216,1.821-4.216,4.647v11.5h-6.421Z" transform="translate(-112.901 -7.977)"></path><path id="Path_17122" data-name="Path 17122" d="M305.179,31.944c0-6.8,4.839-11.787,11.5-11.787,6.228,0,10.972,4.5,10.972,10.732a13.47,13.47,0,0,1-.24,2.827H311.839c.623,2.683,2.731,4.312,5.846,4.312a7.916,7.916,0,0,0,5.941-2.636l3.4,3.786a13.126,13.126,0,0,1-9.967,4.361c-7,0-11.883-4.84-11.883-11.6m16.1-2.683c-.575-2.683-2.3-4.12-4.7-4.12a4.834,4.834,0,0,0-4.839,4.12Z" transform="translate(-120.779 -7.977)"></path><path id="Path_17123" data-name="Path 17123" d="M345.377,31.561v-9.2h-3.4V17.187h3.4v-6.23H351.8v6.23h6.084v5.174H351.8v8.673c0,2.013.815,3.259,2.635,3.259a4.753,4.753,0,0,0,3.066-1.246l2.54,4.265a9.139,9.139,0,0,1-6.708,2.587c-5.128,0-7.955-3.066-7.955-8.337" transform="translate(-135.341 -4.336)"></path></g></g></svg> 