<?xml version="1.0" encoding="UTF-8"?>
<svg xmlns="http://www.w3.org/2000/svg" version="1.1" viewBox="0 0 215 70">
  <defs>
    <style>
      .cls-1 {
        fill: #8cc5b4;
      }
    </style>
  </defs>
  <!-- Generator: Adobe Illustrator 28.7.1, SVG Export Plug-In . SVG Version: 1.2.0 Build 142)  -->
  <g>
    <g id="Layer_1">
      <g id="Layer_1-2" data-name="Layer_1">
        <g>
          <path class="cls-1" d="M34.3,3.1c-2.1,1.1-6.1,2.7-8.7,3.4-3.7,1-4.8,1.6-4.8,2.4s.6,1.2,1.8,1.5c1.5.3,1.9.9,2.2,2.3.6,3,.4,47.9-.2,49.5-.3.8-1.3,1.9-2.3,2.4-1.9,1-2.3,2.3-.8,2.8,1.6.6,20.5.4,21.8-.2,1.7-.9,1.3-1.7-1.2-2.7-1.5-.6-2.4-1.4-2.7-2.2-.2-.7-.2-7.1,0-14.3.2-11.2.3-13.3,1.2-14.9,3.1-5.7,11.5-5.5,13.2.3.7,2.7.8,27.4,0,29.3-.3.8-1.3,1.7-2.3,2-1.9.7-2.2,1.2-1.1,2.3s19.2,1,21.8.3c2-.6,1.6-2.3-1-3.2l-2.3-.9-.2-15.8c-.2-17.8-.4-18.7-4.2-21.8-5.5-4.5-14.2-4.1-21.5,1-1.8,1.3-3.4,2.3-3.5,2.3-.2,0-.3-6.3-.3-13.9s-.2-13.9-.4-13.9c-.3,0-2.2,1-4.4,2h0Z"/>
          <path class="cls-1" d="M134.5,23.4c-2.2,1.1-6,2.4-8.3,3-3.8.8-4.3,1.1-4.1,2.2,0,.8.6,1.3,1.5,1.4,2.4.3,2.5,1,2.4,17.6l-.2,15.9-1.9.6c-2.7.9-3.3,1.6-2.1,2.8s2.4.9,10.7.9c12.8,0,15.7-1.1,10-3.7-3.1-1.5-3.2-1.9-2.9-15.5.2-9.7.3-10.9,1.5-13.1,1.4-2.7,4.9-5.4,6.9-5.4s2.2.9,3.3,2c2.4,2.4,5.1,2.7,7.5.8,1.7-1.4,2-4.2.6-6.8-.9-1.7-5-4.1-7-4.1s-6.7,2-9.5,4.4c-1.6,1.4-3,2.6-3.2,2.6s-.3-1.7-.3-3.8-.2-3.8-.4-3.7c-.3,0-2.3.9-4.5,2h0Z"/>
          <path class="cls-1" d="M94.5,23.2c-7.7,1.1-15,6.8-17.8,13.8-1,2.7-1.3,4.4-1.3,9.7s.2,6.7,1.6,9.7c4.3,9.2,14.2,14,24.9,12.2,5.6-1,8.6-2.4,12.4-5.9,3.5-3.4,4.8-6.2,3.8-8.1-.9-1.8-2.7-1.4-5.7,1.2-4.6,4.1-9.7,5.7-14.1,4.6-3.5-.9-7.1-4.8-8.4-8.9-.6-1.8-.9-3.3-.8-3.4,0,0,6.1-1.7,13.2-3.5,13.9-3.5,15.7-4.4,15.7-7.4,0-9.1-11.2-15.6-23.5-13.9h0ZM101.9,29.2c2.4,1,3.9,3.2,3.9,5.8s-.3,2.2-1.6,2.9c-2.1,1-15.3,5.2-15.6,4.8s.9-6.2,2-8.4c2.6-5,6.8-7,11.3-5.2h0Z"/>
          <path class="cls-1" d="M176,23.3c-8.6,1.9-13.9,7.3-13.9,13.8s2.3,8.1,10.8,14c8.6,5.9,10.3,9.2,6.7,12.8-3.6,3.6-2.2,1.7-4.4,1.7-3.8,0-4.7-.7-5.7-4.3-1.4-4.8-2.6-5.9-6.2-5.9s-3.2.2-4.1,1.4c-2.9,3.5-.2,8.9,5.5,10.9,4.1,1.4,12.3,1.4,16.7,0,7-2.3,11.5-7.6,11.5-13.6s-2.6-8.9-11.1-14.3c-6.1-3.9-8.1-6-8.1-8.2s.5-3.7,2.4-4.6c3.7-2,6.4-.9,7.8,3.2,1.6,4.9,5.8,6.7,9.3,3.9,1.4-1.1,1.6-1.5,1.3-3.6-.8-5.6-9.6-9.1-18.4-7.1h-.1Z"/>
        </g>
      </g>
    </g>
  </g>
</svg>