<?xml version="1.0" encoding="UTF-8"?>
<svg xmlns="http://www.w3.org/2000/svg" version="1.1" viewBox="0 0 215 70">
  <defs>
    <style>
      .cls-1 {
        fill: none;
      }

      .cls-2 {
        fill: #c2896e;
      }

      .cls-3 {
        fill: #c38a6f;
      }
    </style>
  </defs>
  <!-- Generator: Adobe Illustrator 28.7.1, SVG Export Plug-In . SVG Version: 1.2.0 Build 142)  -->
  <g>
    <g id="Layer_1">
      <g id="Layer_1-2" data-name="Layer_1">
        <g>
          <path class="cls-2" d="M167.6,59.1c0-2.8,1.7-4.7,5.1-4.7s5.1,1.4,6.5,7.1c.5,1.9,1.7,3.1,4.7,3.1s6.5-2.3,6.5-5.7-3-5.3-8.9-9.1c-6.4-3.9-9.9-7.7-9.9-13.2,0-8.6,9.5-13.7,18.2-13.7s13.6,4.2,13.6,8.1-1.7,4-4.7,4-4.9-1.5-6.1-5.9c-.6-2.2-1.7-3.1-3.9-3.1-3.5,0-5.9,1.8-5.9,5.1s3.1,5.1,9.9,9.4c6.4,3.8,9.3,7.9,9.3,12.8,0,8-8.6,14.5-19.4,14.5-10.7,0-15-4.5-15-8.7"/>
          <path class="cls-2" d="M16,22.1c0-1.8,0-7.6-.2-8.8-.3-1.6-.7-1.7-3.2-2.3-.9-.2-1-.8-1-1.5s.1-1,2.7-1.5c4.8-1.1,9.4-2.9,13.7-5.4.9-.6,1-.6,1.2-.6.7,0,.7.8.7,1.8v24.3c-.1,1-.1,1.4.3,1.4s.3,0,1.4-1c4-3.4,8.6-5.5,13.9-5.5s7.6,1.2,10.3,4.2c2.4,2.5,2.7,6.2,2.7,10.2v23.4c0,2.1.4,2.9,3.1,3.6,0,0,.7.3,2.3.3s2.2-.2,2.2-.2c2.9-.9,2.9-1.9,2.9-6.5v-11.4c0-1.8-.2-11.1-.4-12.2-.3-1.6-.7-1.7-3.2-2.3-.9-.2-1-.8-1-1.5s0-1,2.7-1.5c4.8-1.1,9.4-2.9,13.6-5.4.9-.6,1-.6,1.2-.6.7,0,.7.8.7,1.8v33.7c0,4.2.3,4.9,3.3,5.7.9.3,1.8.4,2.7.3.9,0,1.8,0,2.7-.3,3.5-.9,3.5-2.1,3.5-6.3,0-7.4,0-16.9-.3-22.2,0-3.2-.2-3.2-4.4-3.9-1-.2-1.1-.7-1.1-1.4,0-1,.4-1.1,2-1.4,3.7-.8,9.4-2.3,14.4-5.2,1.6-1,1.8-1,2-1,.6,0,.6.7.6,1.2v3.8c0,.9,0,1.2.4,1.2s.4,0,1-.6c4.3-3.9,8.1-5.7,13-5.7s7.9,1.4,10.5,4.9c1.3,1.8,1.4,1.8,1.8,1.8s.3,0,1.9-1.5c2.7-2.6,7.3-5.4,13.3-5.4s8.5.1,11.6,5.5c1.1,2,1.8,3.1,1.8,14.8v17.5c0,1.5,0,2.9,2.8,3.6,1,.3,1.7.4,1.7,1.7s-.2,1.3-1.4,1.4h-19.5c-.9,0-1.9-.2-1.9-1.7s.5-1,1.5-1.3c1.8-.5,2.9-.8,2.9-5.1v-8.5c0-2.5,0-13.6-.2-15.1-.1-1.5-.5-6.7-6.4-6.7s-7,1.3-7,6.2v25.2c0,2.6.4,3.2,3.2,3.9,1,.3,1.6.4,1.6,1.4,0,1.5-.8,1.7-3.1,1.7h-17.7c-1.2,0-2.2,0-2.2-1.5s.3-1,1.2-1.3c3.2-1,3.2-2.2,3.2-6.2s0-21.3-.4-24.1c-.6-3.6-3.7-4.8-6-4.8s-5.9,2.1-6.7,4.3c-.3.7-.3,10-.3,11.5,0,2.6,0,14,.2,15.8.2,2.4,2.1,2.9,3.9,3.3.9.3,1.3.3,1.3,1.4s-1.1,1.5-2.4,1.5H41.2c-.7,0-1-.8-1-1.4s.4-1.1,1.2-1.3c1.3-.3,2.2-.6,2.6-1.6.4-1.2.4-3.6.5-5.5,0-8.6,0-8.8,0-18.5s0-9.9-6.6-9.9-5.2,1.8-5.9,2.5c-1.7,1.6-2.3,2.2-2.3,5.5v23.4c0,2.2.3,3.1,3.2,3.9.8.2,1.7.3,1.7,1.2,0,1.6-1.1,1.7-2.7,1.7H13.9c-1.6,0-2.3,0-2.3-1.4s.5-1,1.5-1.3c2.9-1,2.9-2.2,2.9-6.5V21.8v.3Z"/>
          <path class="cls-3" d="M76,5.3c-4.3,0-7.6,3.7-7.6,7.7s3.9,7.4,7.3,7.4,7.6-3.5,7.6-7.7h0c0-4-3.3-7.3-7.3-7.3h0"/>
          <rect class="cls-1" x="4.3" y="-5.1" width="206.3" height="80.2"/>
        </g>
      </g>
    </g>
  </g>
</svg>