<?xml version="1.0" encoding="UTF-8"?>
<svg xmlns="http://www.w3.org/2000/svg" version="1.1" viewBox="0 0 150 38">
  <defs>
    <style>
      .cls-1 {
        fill: #0374ef;
      }

      .cls-2 {
        fill: #dddd58;
      }
    </style>
  </defs>
  <!-- Generator: Adobe Illustrator 28.7.1, SVG Export Plug-In . SVG Version: 1.2.0 Build 142)  -->
  <g>
    <g id="Layer_1">
      <g>
        <path class="cls-1" d="M32.3,11.8c.4.5.6,1.2.6,1.9,0,1-.4,1.8-1.1,2.4-.7.6-1.7.9-2.9.9h-5.6V4.9h5.4c1.2,0,2.2.3,2.9.8.7.6,1,1.3,1,2.3s-.2,1.3-.6,1.8c-.4.5-.9.8-1.5,1,.7.1,1.3.5,1.7,1ZM26.2,9.8h1.9c.5,0,.8-.1,1.1-.3.3-.2.4-.5.4-.9s-.1-.7-.4-.9c-.3-.2-.6-.3-1.1-.3h-1.9v2.5ZM29.5,14.2c.3-.2.4-.5.4-1s-.1-.8-.4-1-.7-.4-1.2-.4h-2.1v2.6h2.2c.5,0,.9-.1,1.1-.3Z"/>
        <path class="cls-1" d="M43.5,12.9h-6.6c0,.6.2,1,.6,1.4.3.3.7.5,1.2.5.7,0,1.2-.3,1.5-.9h3.1c-.2.6-.4,1.2-.9,1.7-.4.5-.9.9-1.6,1.2-.6.3-1.3.4-2.1.4s-1.8-.2-2.5-.6c-.7-.4-1.3-1-1.7-1.7-.4-.7-.6-1.6-.6-2.6s.2-1.9.6-2.6c.4-.7,1-1.3,1.7-1.7.7-.4,1.6-.6,2.5-.6s1.7.2,2.5.6c.7.4,1.3.9,1.7,1.7s.6,1.6.6,2.5,0,.6,0,.9ZM40.6,11.2c0-.5-.2-.9-.5-1.2-.3-.3-.8-.4-1.3-.4s-.9.1-1.2.4c-.3.3-.5.7-.6,1.2h3.7Z"/>
        <path class="cls-1" d="M46.8,16.6c-.6-.3-1.2-.7-1.5-1.2-.4-.5-.6-1.1-.6-1.7h2.9c0,.3.2.6.5.8.3.2.6.3,1,.3s.6,0,.8-.2c.2-.1.3-.3.3-.6s-.1-.5-.4-.6c-.3-.1-.7-.3-1.4-.4-.7-.2-1.3-.3-1.7-.5-.5-.2-.8-.5-1.2-.8-.3-.4-.5-.9-.5-1.5s.2-1,.5-1.5c.3-.4.7-.8,1.3-1.1.6-.3,1.3-.4,2.1-.4,1.2,0,2.1.3,2.8.9.7.6,1.1,1.4,1.2,2.4h-2.7c0-.3-.2-.6-.4-.8-.2-.2-.6-.3-1-.3s-.6,0-.8.2c-.2.1-.3.3-.3.5s.1.5.4.6c.3.1.7.3,1.4.4.7.2,1.3.4,1.7.5.4.2.8.5,1.2.9.3.4.5.9.5,1.6,0,.6-.2,1.1-.5,1.5-.3.4-.8.8-1.4,1s-1.3.4-2,.4-1.6-.1-2.2-.4Z"/>
        <path class="cls-1" d="M60,14.4v2.5h-1.5c-1.1,0-1.9-.3-2.5-.8-.6-.5-.9-1.4-.9-2.5v-3.8h-1.2v-2.4h1.2v-2.3h2.9v2.3h1.9v2.4h-1.9v3.8c0,.3,0,.5.2.6s.4.2.7.2h1Z"/>
        <path class="cls-1" d="M78.1,4.9l-3.1,12h-3.5l-1.9-7.9-2,7.9h-3.5l-3-12h3.1l1.7,8.7,2.1-8.7h3.2l2.1,8.7,1.7-8.7h3.1Z"/>
        <path class="cls-1" d="M88.5,12.9h-6.6c0,.6.2,1,.6,1.4.3.3.7.5,1.2.5.7,0,1.2-.3,1.5-.9h3.1c-.2.6-.4,1.2-.9,1.7-.4.5-.9.9-1.6,1.2-.6.3-1.3.4-2.1.4s-1.8-.2-2.5-.6c-.7-.4-1.3-1-1.7-1.7-.4-.7-.6-1.6-.6-2.6s.2-1.9.6-2.6c.4-.7,1-1.3,1.7-1.7.7-.4,1.6-.6,2.5-.6s1.7.2,2.5.6c.7.4,1.3.9,1.7,1.7s.6,1.6.6,2.5,0,.6,0,.9ZM85.6,11.2c0-.5-.2-.9-.5-1.2-.3-.3-.8-.4-1.3-.4s-.9.1-1.2.4c-.3.3-.5.7-.6,1.2h3.7Z"/>
        <path class="cls-1" d="M90.3,5.9c-.3-.3-.5-.7-.5-1.1s.2-.8.5-1.1c.3-.3.7-.5,1.3-.5s.9.2,1.2.5c.3.3.5.7.5,1.1s-.2.8-.5,1.1c-.3.3-.7.5-1.2.5s-.9-.2-1.3-.5ZM93,7.4v9.5h-2.9V7.4h2.9Z"/>
        <path class="cls-1" d="M100.5,7.7c.5.3.9.6,1.2,1.1v-1.4h2.9v9.5c0,.9-.2,1.7-.5,2.4-.3.7-.9,1.3-1.6,1.7s-1.6.6-2.7.6-2.6-.3-3.4-1-1.4-1.6-1.5-2.7h2.9c0,.4.3.7.6.9s.8.3,1.3.3,1.1-.2,1.4-.5c.4-.3.5-.9.5-1.7v-1.4c-.3.4-.7.8-1.2,1.1-.5.3-1.1.4-1.8.4s-1.5-.2-2.1-.6c-.6-.4-1.1-1-1.5-1.7-.4-.7-.6-1.6-.6-2.6s.2-1.8.6-2.6c.4-.7.9-1.3,1.5-1.7.6-.4,1.4-.6,2.1-.6s1.3.1,1.8.4ZM101.1,10.4c-.4-.4-.9-.6-1.5-.6s-1.1.2-1.5.6c-.4.4-.6,1-.6,1.7s.2,1.3.6,1.7c.4.4.9.6,1.5.6s1.1-.2,1.5-.6.6-1,.6-1.7-.2-1.3-.6-1.7Z"/>
        <path class="cls-1" d="M115.2,8.4c.7.7,1,1.7,1,3v5.6h-2.9v-5.2c0-.6-.2-1.1-.5-1.5-.3-.4-.8-.5-1.3-.5s-1,.2-1.3.5c-.3.4-.5.8-.5,1.5v5.2h-2.9V4.3h2.9v4.4c.3-.4.7-.8,1.2-1,.5-.3,1.1-.4,1.7-.4,1.1,0,2,.4,2.6,1.1Z"/>
        <path class="cls-1" d="M123.6,14.4v2.5h-1.5c-1.1,0-1.9-.3-2.5-.8s-.9-1.4-.9-2.5v-3.8h-1.2v-2.4h1.2v-2.3h2.9v2.3h1.9v2.4h-1.9v3.8c0,.3,0,.5.2.6s.4.2.7.2h1Z"/>
        <path class="cls-1" d="M25.5,31.6h4v1.6h-6v-11.9h1.9v10.3Z"/>
        <path class="cls-1" d="M32.8,32.7c-.7-.4-1.3-1-1.7-1.7-.4-.7-.6-1.6-.6-2.6s.2-1.8.6-2.5c.4-.7,1-1.3,1.7-1.7.7-.4,1.5-.6,2.4-.6s1.7.2,2.4.6c.7.4,1.3,1,1.7,1.7.4.7.6,1.6.6,2.5s-.2,1.8-.6,2.5c-.4.7-1,1.3-1.8,1.7-.7.4-1.6.6-2.5.6s-1.7-.2-2.4-.6ZM36.6,31.3c.4-.2.8-.6,1.1-1.1s.4-1.1.4-1.7-.1-1.3-.4-1.7c-.3-.5-.6-.8-1-1.1-.4-.2-.9-.4-1.4-.4s-1,.1-1.4.4c-.4.2-.8.6-1,1.1-.3.5-.4,1.1-.4,1.7,0,1,.3,1.8.8,2.4s1.2.8,2,.8,1-.1,1.4-.4Z"/>
        <path class="cls-1" d="M43.5,32.9c-.6-.3-1.1-.6-1.4-1.1-.3-.5-.5-1-.5-1.5h2c0,.4.2.7.6,1,.3.3.8.4,1.3.4s1-.1,1.3-.3c.3-.2.5-.5.5-.8s-.2-.6-.5-.8c-.3-.2-.9-.4-1.6-.6-.7-.2-1.3-.4-1.7-.6-.4-.2-.8-.5-1.2-.8s-.5-.9-.5-1.5.1-1,.4-1.4c.3-.4.7-.7,1.3-1,.6-.2,1.2-.4,1.9-.4,1.1,0,1.9.3,2.6.8.7.5,1,1.3,1.1,2.2h-1.9c0-.4-.2-.8-.5-1-.3-.2-.7-.4-1.2-.4s-.9,0-1.2.3c-.3.2-.4.5-.4.8s0,.5.3.6.4.3.7.4c.3,0,.6.2,1.2.4.7.2,1.2.4,1.7.6.4.2.8.5,1.1.8.3.4.5.8.5,1.5,0,.5-.1,1-.4,1.4s-.7.8-1.3,1c-.5.2-1.2.4-1.9.4s-1.4-.1-2-.4Z"/>
        <path class="cls-1" d="M52.6,32.9c-.6-.3-1.1-.6-1.4-1.1-.3-.5-.5-1-.5-1.5h2c0,.4.2.7.6,1,.3.3.8.4,1.3.4s1-.1,1.3-.3c.3-.2.5-.5.5-.8s-.2-.6-.5-.8c-.3-.2-.9-.4-1.6-.6-.7-.2-1.3-.4-1.7-.6-.4-.2-.8-.5-1.2-.8s-.5-.9-.5-1.5.1-1,.4-1.4c.3-.4.7-.7,1.3-1,.6-.2,1.2-.4,1.9-.4,1.1,0,1.9.3,2.6.8.7.5,1,1.3,1.1,2.2h-1.9c0-.4-.2-.8-.5-1-.3-.2-.7-.4-1.2-.4s-.9,0-1.2.3c-.3.2-.4.5-.4.8s0,.5.3.6.4.3.7.4c.3,0,.6.2,1.2.4.7.2,1.2.4,1.7.6.4.2.8.5,1.1.8.3.4.5.8.5,1.5,0,.5-.1,1-.4,1.4s-.7.8-1.3,1c-.5.2-1.2.4-1.9.4s-1.4-.1-2-.4Z"/>
        <path class="cls-1" d="M72.8,21.3v11.9h-1.9v-8.1l-3.6,8.1h-1.4l-3.6-8.1v8.1h-1.9v-11.9h2.1l4.2,9.3,4.2-9.3h2.1Z"/>
        <path class="cls-1" d="M83.9,29.2h-7.2c0,.8.3,1.4.8,1.8s1.1.7,1.8.7c1,0,1.8-.4,2.2-1.3h2.1c-.3.9-.8,1.6-1.5,2.1-.7.6-1.7.8-2.8.8s-1.7-.2-2.4-.6c-.7-.4-1.3-1-1.7-1.7-.4-.7-.6-1.6-.6-2.6s.2-1.8.6-2.6c.4-.7.9-1.3,1.7-1.7.7-.4,1.5-.6,2.5-.6s1.7.2,2.4.6c.7.4,1.2.9,1.6,1.6.4.7.6,1.5.6,2.4s0,.7,0,1ZM82,27.6c0-.7-.3-1.3-.8-1.7-.5-.4-1.1-.7-1.9-.7s-1.2.2-1.7.6c-.5.4-.8,1-.9,1.7h5.2Z"/>
        <path class="cls-1" d="M85.9,25.9c.4-.7.9-1.3,1.6-1.7.7-.4,1.4-.6,2.3-.6s1.2.1,1.8.4c.6.3,1.1.6,1.4,1.1v-4.5h2v12.6h-2v-1.4c-.3.5-.8.8-1.3,1.1-.6.3-1.2.4-1.9.4s-1.6-.2-2.2-.6c-.7-.4-1.2-1-1.6-1.7-.4-.7-.6-1.6-.6-2.5s.2-1.8.6-2.5ZM92.6,26.8c-.3-.5-.6-.8-1.1-1.1-.4-.3-.9-.4-1.4-.4s-1,.1-1.4.4c-.4.2-.8.6-1.1,1.1-.3.5-.4,1-.4,1.7s.1,1.2.4,1.7c.3.5.6.9,1.1,1.1.4.3.9.4,1.4.4s1-.1,1.4-.4c.4-.3.8-.6,1.1-1.1.3-.5.4-1.1.4-1.7s-.1-1.2-.4-1.7Z"/>
        <path class="cls-1" d="M98.9,32.9c-.6-.3-1.1-.6-1.4-1.1s-.5-1-.5-1.5h2c0,.4.2.7.6,1s.8.4,1.3.4,1-.1,1.3-.3c.3-.2.5-.5.5-.8s-.2-.6-.5-.8-.9-.4-1.6-.6c-.7-.2-1.3-.4-1.7-.6-.4-.2-.8-.5-1.2-.8-.3-.4-.5-.9-.5-1.5s.1-1,.4-1.4c.3-.4.7-.7,1.3-1s1.2-.4,1.9-.4c1.1,0,1.9.3,2.6.8.7.5,1,1.3,1.1,2.2h-1.9c0-.4-.2-.8-.5-1-.3-.2-.7-.4-1.2-.4s-.9,0-1.2.3c-.3.2-.4.5-.4.8s0,.5.3.6c.2.2.4.3.7.4.3,0,.6.2,1.2.4.7.2,1.2.4,1.7.6.4.2.8.5,1.1.8.3.4.5.8.5,1.5,0,.5-.1,1-.4,1.4s-.7.8-1.3,1-1.2.4-1.9.4-1.4-.1-2-.4Z"/>
      </g>
      <path class="cls-2" d="M10.7,31.4c-2.5,0-4.7-.9-6.5-2.7-1.8-1.8-2.7-3.9-2.7-6.5s.6-3.9,1.8-5.5c1.2-1.6,2.8-2.7,4.7-3.3-.4-.1-.9-.3-1.3-.5s-.8-.5-1.1-.8c-.7-.7-1.2-1.6-1.4-2.6s-.3-2-.1-3c1-.1,2,0,3,.1s1.8.7,2.6,1.4c.5.5.9,1.1,1.1,1.7s.4,1.3.4,2c.3-.7.6-1.3,1-1.9s.9-1.1,1.4-1.6.5-.4.9-.4.7.1.9.4.4.5.4.9-.1.7-.4.9c-.5.5-.9,1-1.3,1.6s-.6,1.2-.8,1.8c1.9.6,3.5,1.7,4.6,3.3s1.8,3.4,1.8,5.4-.9,4.7-2.7,6.5-3.9,2.7-6.5,2.7ZM10.7,28.8c1.8,0,3.3-.6,4.6-1.9s1.9-2.8,1.9-4.6-.6-3.3-1.9-4.6-2.8-1.9-4.6-1.9-3.3.6-4.6,1.9-1.9,2.8-1.9,4.6.6,3.3,1.9,4.6,2.8,1.9,4.6,1.9Z"/>
    </g>
  </g>
</svg>