<?xml version="1.0" encoding="UTF-8"?><svg id="_Шар_1" xmlns="http://www.w3.org/2000/svg" viewBox="0 0 478.77 101.15"><defs><style>.cls-1{fill:#38312c;stroke-width:0px;}</style></defs><path class="cls-1" d="m89.72,47.77c-8.63,14.34-17.25,28.69-25.86,43h-12.58c-8.16-13.19-16.4-26.51-25.29-40.89v50.51H0V1.87h23.01l34.98,57.01c11.63-19.42,22.94-38.29,34.25-57.17h23.02v98.75h-25.54v-52.68Z"/><path class="cls-1" d="m229.28,100.86V1.42c21.08,0,40.92-.37,61.31,1.5,26.55,2.44,41.98,23.78,41.39,50.11-.55,24.61-17.75,43.35-43.7,46.69-20.09,1.98-38.31,1.43-59,1.15Zm28.16-77.1v54.56c8.28-.11,16.42.71,24.45-.52,13.57-2.07,21.59-12.21,21.61-26.64.02-14.48-7.94-24.41-21.52-26.72-8.06-1.37-16.17-.51-24.54-.68Z"/><path class="cls-1" d="m134.67,100.52V1.8h77.64v21.3h-49.73v16.84h43.78v20.76h-43.68v18.25h51.48v21.57h-79.48Z"/><path class="cls-1" d="m330.31,1.78h30.37c8.81,20.97,17.72,42.18,27.1,64.49,9.48-22.09,18.55-43.23,27.68-64.5h27.79c-14.27,33.09-28.4,65.87-42.59,98.79h-27.88c-14.05-32.68-28.17-65.52-42.47-98.78Z"/><path class="cls-1" d="m448.96,100.49V35.14c8.93,2.45,17.71,3.11,26.67-.16v65.5h-26.67Z"/><path class="cls-1" d="m462.3,28.55c-9.55,0-16.42-5.93-16.45-14.16-.03-8.22,6.83-14.27,16.31-14.38,9.67-.12,16.57,5.66,16.6,13.9.03,8.67-6.7,14.65-16.46,14.64Z"/></svg>