<?xml version="1.0" encoding="UTF-8"?>
<svg xmlns="http://www.w3.org/2000/svg" version="1.1" viewBox="0 0 215 80">
  <!-- Generator: Adobe Illustrator 28.7.1, SVG Export Plug-In . SVG Version: 1.2.0 Build 142)  -->
  <g>
    <g id="Layer_1">
      <g id="Layer_1-2" data-name="Layer_1">
        <g>
          <path d="M76.1,20.1v-8.2h-3.2l-11.2,3.2-7.3,2.1v1.7c3.7-.4,7,2.3,7.3,6v43h14.7v-24.2c0-11,4.1-18,15.1-18v-15.1c-6.6-.2-12.5,3.6-15.3,9.6h0Z"/>
          <path d="M130.4,10.6c-16.1-.5-29.5,12.1-30,28.1v1.4c-.4,15.8,12.1,29,27.9,29.4h2.1c17.5-.2,30.3-12.5,30.3-29.3,0-16.2-12.9-29.4-29.1-29.5h-1.1ZM130.4,56.2c-8.4,0-15.2-6.7-15.3-15v-1.2c0-8.5,6.9-15.4,15.4-15.4s15.4,6.9,15.4,15.4c.6,8.4-5.7,15.7-14.1,16.2h-1.5Z"/>
        </g>
      </g>
    </g>
  </g>
</svg>