<?xml version="1.0" encoding="UTF-8"?>
<svg id="Layer_2" data-name="Layer 2" xmlns="http://www.w3.org/2000/svg" width="380" height="129" viewBox="0 0 380 129">
  <defs>
    <style>
      .cls-1 {
        fill: #354c3a;
        stroke-width: 0px;
      }
    </style>
  </defs>
  <path class="cls-1" d="M99.29,82.38c-.6-1.03-1.47-2.03-2.61-3-1.14-.97-2.16-1.74-3.05-2.31-.89-.57-2.14-1.19-3.77-1.84-1.63-.66-2.91-1.14-3.85-1.46-.95-.31-2.33-.76-4.16-1.33-4.46-1.37-7.47-2.64-9.04-3.81-1.57-1.17-2.36-2.7-2.36-4.59,0-1.77.7-3.21,2.1-4.33,1.4-1.11,3.33-1.67,5.79-1.67,5.25,0,9.08,2.57,11.49,7.72l9.95-5.75c-2.06-4.23-4.93-7.53-8.61-9.9-3.69-2.37-7.96-3.56-12.81-3.56-5.43,0-10.07,1.61-13.93,4.84-3.85,3.23-5.79,7.56-5.79,12.99,0,2.74.49,5.15,1.46,7.2.97,2.06,2.39,3.76,4.24,5.1s3.71,2.41,5.57,3.21c1.85.8,4.13,1.6,6.82,2.4,4.86,1.37,8.23,2.64,10.11,3.81,1.89,1.17,2.83,2.82,2.83,4.93,0,1.83-.77,3.34-2.31,4.54-1.54,1.2-3.97,1.8-7.29,1.8-6.86,0-11.46-3.06-13.8-9.17l-10.12,5.92c1.66,4.57,4.51,8.19,8.57,10.84,4.06,2.66,9.06,3.99,15,3.99,6.46,0,11.7-1.63,15.73-4.88,4.03-3.26,6.04-7.66,6.04-13.2,0-1.71-.21-3.3-.64-4.76-.43-1.46-.95-2.7-1.54-3.73h0Z"/>
  <path class="cls-1" d="M131.91,63.7c-6,0-10.63,2.09-13.88,6.26v-5.06h-11.06v60h11.06s0-22.2,0-22.2c3.26,4.17,7.89,6.26,13.88,6.26s10.7-2.18,14.79-6.56c4.08-4.37,6.13-9.73,6.13-16.07s-2.04-11.7-6.13-16.07-9.02-6.56-14.79-6.56h0ZM138.38,95.03c-2.26,2.26-5.1,3.38-8.53,3.38s-6.26-1.13-8.49-3.38c-2.23-2.26-3.34-5.16-3.34-8.7s1.11-6.44,3.34-8.7c2.23-2.26,5.06-3.38,8.49-3.38s6.27,1.13,8.53,3.38c2.26,2.26,3.38,5.16,3.38,8.7s-1.13,6.45-3.38,8.7Z"/>
  <path class="cls-1" d="M169.97,64.9h-11.06v42.86h11.06v-20.49c0-4.12,1.33-7.06,3.99-8.83,2.66-1.77,5.67-2.46,9.04-2.06v-12.34c-2.91,0-5.56.68-7.93,2.06-2.37,1.37-4.07,3.43-5.1,6.17v-7.38Z"/>
  <path class="cls-1" d="M206.49,63.7c-6.34,0-11.7,2.18-16.07,6.56-4.37,4.37-6.56,9.73-6.56,16.07s2.18,11.7,6.56,16.07c4.37,4.37,9.73,6.56,16.07,6.56s11.71-2.18,16.11-6.56c4.4-4.37,6.6-9.73,6.6-16.07s-2.2-11.7-6.6-16.07c-4.4-4.37-9.77-6.56-16.11-6.56ZM214.8,94.81c-2.23,2.23-5,3.34-8.32,3.34s-6.08-1.11-8.27-3.34c-2.2-2.23-3.3-5.06-3.3-8.49s1.1-6.26,3.3-8.49c2.2-2.23,4.96-3.34,8.27-3.34s6.09,1.11,8.32,3.34c2.23,2.23,3.34,5.06,3.34,8.49s-1.11,6.26-3.34,8.49Z"/>
  <path class="cls-1" d="M263.57,88.04c0,3.54-.86,6.2-2.57,7.97-1.71,1.77-4,2.66-6.86,2.66-2.57,0-4.63-.76-6.17-2.27-1.54-1.51-2.31-3.7-2.31-6.56v-24.94h-11.06v26.32c0,5.54,1.53,9.89,4.59,13.03,3.06,3.14,6.93,4.72,11.62,4.72,5.83,0,10.09-2,12.77-6v4.8h11.06v-42.86h-11.06v23.15h0Z"/>
  <path class="cls-1" d="M323.8,23.6c-.42-6.84-3.07-13.34-6.05-19.5-.98,3.76-3.69,6.85-6.76,9.23-3.07,2.38-6.55,4.17-9.79,6.31-3.24,2.14-6.33,4.73-8.12,8.19-1.5,2.9-1.99,6.25-1.89,9.52.1,3.27.97,6.95,2.35,10.1.63-2.38,2.38-4.69,5.13-6.74,15.38-11.48,17.15-20.74,17.22-21.1-1.31,8.38-5.42,12.55-9.39,16.39-2.88,2.8-5.17,4.86-7.99,7.73-4.14,4.2-5.17,8.62-5.42,10.63l-2.36.71c-.28-1.23-1.46-5.07-5.69-8.24-2.58-1.93-4.63-3.29-7.26-5.16-3.6-2.56-7.36-5.37-9.41-11.85.09.28,2.61,7.4,16.18,14.64,2.42,1.29,4.09,2.91,4.87,4.72.71-2.66.96-5.68.64-8.28-.31-2.6-1.1-5.19-2.64-7.31-1.83-2.52-4.59-4.2-7.41-5.51-2.83-1.31-5.79-2.31-8.51-3.82-2.72-1.51-5.24-3.64-6.47-6.49-1.61,5.24-2.93,10.71-2.44,16.18.49,5.47,3.04,10.99,7.7,13.89,4.89,3.05,11.4,1.55,15.16,2.08,3.24.46,4.51,4.33,4.78,5.3l-3.4,1.02v8.66h-7.46v10.63h7.46v17.83c0,5.89,1.56,9.97,4.67,12.26,3.11,2.28,8.47,3,16.07,2.14v-10.03c-2.12.12-3.89.13-5.31.04-1.43-.08-2.52-.47-3.26-1.15-.74-.68-1.11-1.77-1.11-3.26v-17.83h9.68v-10.63h-9.68v-12l-4.03,1.22c.38-1.92,1.51-5.54,4.75-6.51,4.53-1.36,12.86-.74,18.32-5.41,5.21-4.46,7.32-11.75,6.89-18.59h-.01Z"/>
</svg>