<?xml version="1.0" encoding="UTF-8"?>
<svg xmlns="http://www.w3.org/2000/svg" version="1.1" viewBox="0 0 185.3 45">
  <defs>
    <style>
      .cls-1 {
        fill: #fff;
      }

      .cls-2 {
        fill: none;
      }
    </style>
  </defs>
  <!-- Generator: Adobe Illustrator 28.7.1, SVG Export Plug-In . SVG Version: 1.2.0 Build 142)  -->
  <g>
    <g id="Layer_1">
      <g>
        <rect class="cls-2" x="35" y="-.9" width="140.1" height="47.5"/>
        <path class="cls-1" d="M48.5,12.3c.6.8.9,1.6.9,2.6s-.2,1.7-.7,2.4c-.4.7-1.1,1.2-1.9,1.6s-1.8.6-3,.6h-7.2V2.7h6.9c1.1,0,2.1.2,2.9.6s1.4.9,1.9,1.5.6,1.4.6,2.2-.3,1.8-.8,2.4c-.5.7-1.2,1.1-2.1,1.4.9.2,1.7.6,2.3,1.4ZM40,9.7h3.1c.8,0,1.4-.2,1.8-.5.4-.4.6-.9.6-1.5s-.2-1.2-.6-1.6c-.4-.4-1-.6-1.8-.6h-3.1v4.2ZM45.3,16.2c.5-.4.7-.9.7-1.6s-.2-1.3-.7-1.7c-.5-.4-1.1-.6-1.9-.6h-3.3v4.5h3.4c.8,0,1.5-.2,1.9-.6Z"/>
        <path class="cls-1" d="M64.4,13.9h-9.7c0,1,.4,1.7,1,2.3s1.3.8,2.2.8c1.2,0,2.1-.5,2.7-1.6h3.6c-.4,1.3-1.1,2.3-2.2,3.2s-2.4,1.2-4,1.2-2.4-.3-3.4-.9c-1-.6-1.8-1.4-2.4-2.4-.6-1-.9-2.2-.9-3.6s.3-2.6.8-3.6c.6-1,1.3-1.8,2.4-2.4,1-.6,2.2-.8,3.5-.8s2.4.3,3.4.8c1,.5,1.8,1.3,2.3,2.3.6,1,.8,2.1.8,3.4s0,.9,0,1.3ZM61,11.6c0-.9-.3-1.6-.9-2.1-.6-.5-1.4-.8-2.2-.8s-1.5.3-2.1.8c-.6.5-.9,1.2-1,2.1h6.3Z"/>
        <path class="cls-1" d="M69.1,19.1c-.9-.4-1.5-.9-2.1-1.6s-.8-1.4-.8-2.2h3.4c0,.5.3.9.8,1.3.4.3,1,.5,1.6.5s1.1-.1,1.5-.4c.4-.3.5-.6.5-1s-.2-.8-.7-1c-.4-.2-1.1-.5-2.1-.7-1-.2-1.8-.5-2.4-.7-.6-.3-1.2-.6-1.6-1.2-.5-.5-.7-1.2-.7-2.1s.2-1.4.6-2,1-1.1,1.8-1.4c.8-.4,1.7-.5,2.8-.5,1.6,0,2.8.4,3.8,1.2s1.5,1.9,1.6,3.2h-3.2c0-.5-.3-.9-.7-1.3-.4-.3-.9-.5-1.6-.5s-1.1.1-1.4.3c-.3.2-.5.5-.5.9s.2.8.7,1c.4.2,1.1.5,2.1.7,1,.2,1.8.5,2.4.7s1.2.7,1.6,1.2.7,1.2.7,2.1c0,.8-.2,1.5-.6,2.1-.4.6-1,1.1-1.8,1.4s-1.7.5-2.8.5-2.1-.2-2.9-.6Z"/>
        <path class="cls-1" d="M83.9,9v6.4c0,.4.1.8.3,1,.2.2.6.3,1.1.3h1.6v2.8h-2.1c-2.8,0-4.2-1.4-4.2-4.1v-6.4h-1.6v-2.8h1.6v-3.3h3.4v3.3h3v2.8h-3Z"/>
        <path class="cls-1" d="M111.7,2.7l-4.7,16.8h-4l-3.1-11.9-3.3,11.9h-3.9s-4.5-16.8-4.5-16.8h3.6l3,13,3.4-13h3.7l3.2,12.9,3-12.9h3.6Z"/>
        <path class="cls-1" d="M126.1,13.9h-9.7c0,1,.4,1.7,1,2.3s1.3.8,2.2.8c1.2,0,2.1-.5,2.7-1.6h3.6c-.4,1.3-1.1,2.3-2.2,3.2s-2.4,1.2-4,1.2-2.4-.3-3.4-.9c-1-.6-1.8-1.4-2.4-2.4-.6-1-.9-2.2-.9-3.6s.3-2.6.8-3.6c.6-1,1.3-1.8,2.4-2.4,1-.6,2.2-.8,3.5-.8s2.4.3,3.4.8c1,.5,1.8,1.3,2.3,2.3.6,1,.8,2.1.8,3.4s0,.9,0,1.3ZM122.8,11.6c0-.9-.3-1.6-.9-2.1-.6-.5-1.4-.8-2.2-.8s-1.5.3-2.1.8c-.6.5-.9,1.2-1,2.1h6.3Z"/>
        <path class="cls-1" d="M128.9,4.1c-.4-.4-.6-.8-.6-1.4s.2-1,.6-1.4.9-.6,1.5-.6,1.1.2,1.5.6c.4.4.6.8.6,1.4s-.2,1-.6,1.4c-.4.4-.9.6-1.5.6s-1.1-.2-1.5-.6ZM132.1,6.2v13.3h-3.4V6.2h3.4Z"/>
        <path class="cls-1" d="M143.2,6.6c.8.4,1.3.9,1.8,1.5v-1.9h3.4v13.4c0,1.2-.2,2.3-.7,3.3-.5,1-1.2,1.7-2.2,2.3-1,.6-2.2.9-3.6.9s-3.4-.4-4.6-1.3c-1.2-.9-1.9-2.1-2.1-3.6h3.3c.2.6.6,1.1,1.1,1.5s1.3.5,2.1.5,1.8-.3,2.4-.9.9-1.5.9-2.7v-2.1c-.4.6-1,1.1-1.8,1.6s-1.6.6-2.6.6-2.1-.3-3.1-.9c-.9-.6-1.7-1.4-2.2-2.4s-.8-2.3-.8-3.6.3-2.5.8-3.6c.5-1,1.3-1.8,2.2-2.4.9-.6,1.9-.8,3.1-.8s1.9.2,2.6.6ZM144.5,10.8c-.3-.6-.8-1-1.3-1.3-.5-.3-1.1-.5-1.8-.5s-1.2.2-1.7.5c-.5.3-1,.7-1.3,1.3-.3.6-.5,1.3-.5,2.1s.2,1.5.5,2.1c.3.6.8,1.1,1.3,1.4s1.1.5,1.7.5,1.2-.2,1.8-.5c.5-.3,1-.8,1.3-1.3.3-.6.5-1.3.5-2.1s-.2-1.5-.5-2.1Z"/>
        <path class="cls-1" d="M161.8,6.7c.8.4,1.4,1.1,1.8,1.9.4.9.7,1.9.7,3.1v7.8h-3.4v-7.3c0-1.1-.3-1.9-.8-2.4-.5-.6-1.2-.9-2.2-.9s-1.7.3-2.2.9c-.5.6-.8,1.4-.8,2.4v7.3h-3.4V1.7h3.4v6.1c.4-.6,1-1,1.7-1.4s1.5-.5,2.4-.5,1.9.2,2.7.7Z"/>
        <path class="cls-1" d="M171.4,9v6.4c0,.4.1.8.3,1,.2.2.6.3,1.1.3h1.6v2.8h-2.1c-2.8,0-4.2-1.4-4.2-4.1v-6.4h-1.6v-2.8h1.6v-3.3h3.4v3.3h3v2.8h-3Z"/>
        <path class="cls-1" d="M40,41.6h5.5v2.7h-8.9v-16.8h3.4v14.1Z"/>
        <path class="cls-1" d="M50.1,43.7c-1-.6-1.8-1.4-2.4-2.4-.6-1-.9-2.2-.9-3.6s.3-2.6.9-3.6c.6-1,1.4-1.8,2.5-2.4,1-.6,2.2-.9,3.5-.9s2.4.3,3.5.9c1,.6,1.9,1.4,2.5,2.4.6,1,.9,2.2.9,3.6s-.3,2.6-.9,3.6c-.6,1-1.4,1.8-2.5,2.4-1,.6-2.2.9-3.5.9s-2.4-.3-3.5-.9ZM55.3,41.1c.5-.3,1-.7,1.3-1.3.3-.6.5-1.3.5-2.2,0-1.3-.3-2.2-1-2.9-.7-.7-1.5-1-2.4-1s-1.8.3-2.4,1c-.6.7-1,1.7-1,2.9s.3,2.2.9,2.9c.6.7,1.4,1,2.4,1s1.2-.1,1.7-.4Z"/>
        <path class="cls-1" d="M65.2,43.9c-.9-.4-1.5-.9-2.1-1.6s-.8-1.4-.8-2.2h3.4c0,.5.3.9.8,1.3.4.3,1,.5,1.6.5s1.1-.1,1.5-.4c.4-.3.5-.6.5-1s-.2-.8-.7-1c-.4-.2-1.1-.5-2.1-.7-1-.2-1.8-.5-2.4-.7-.6-.3-1.2-.6-1.6-1.2-.5-.5-.7-1.2-.7-2.1s.2-1.4.6-2,1-1.1,1.8-1.4c.8-.4,1.7-.5,2.8-.5,1.6,0,2.8.4,3.8,1.2s1.5,1.9,1.6,3.2h-3.2c0-.5-.3-.9-.7-1.3-.4-.3-.9-.5-1.6-.5s-1.1.1-1.4.3c-.3.2-.5.5-.5.9s.2.8.7,1c.4.2,1.1.5,2.1.7,1,.2,1.8.5,2.4.7s1.2.7,1.6,1.2.7,1.2.7,2.1c0,.8-.2,1.5-.6,2.1-.4.6-1,1.1-1.8,1.4s-1.7.5-2.8.5-2.1-.2-2.9-.6Z"/>
        <path class="cls-1" d="M78.2,43.9c-.9-.4-1.5-.9-2.1-1.6s-.8-1.4-.8-2.2h3.4c0,.5.3.9.8,1.3.4.3,1,.5,1.6.5s1.1-.1,1.5-.4c.4-.3.5-.6.5-1s-.2-.8-.7-1c-.4-.2-1.1-.5-2.1-.7-1-.2-1.8-.5-2.4-.7-.6-.3-1.2-.6-1.6-1.2-.5-.5-.7-1.2-.7-2.1s.2-1.4.6-2,1-1.1,1.8-1.4c.8-.4,1.7-.5,2.8-.5,1.6,0,2.8.4,3.8,1.2s1.5,1.9,1.6,3.2h-3.2c0-.5-.3-.9-.7-1.3-.4-.3-.9-.5-1.6-.5s-1.1.1-1.4.3c-.3.2-.5.5-.5.9s.2.8.7,1c.4.2,1.1.5,2.1.7,1,.2,1.8.5,2.4.7s1.2.7,1.6,1.2.7,1.2.7,2.1c0,.8-.2,1.5-.6,2.1-.4.6-1,1.1-1.8,1.4s-1.7.5-2.8.5-2.1-.2-2.9-.6Z"/>
        <path class="cls-1" d="M107.4,27.5v16.8h-3.4v-10.9l-4.5,10.9h-2.5l-4.5-10.9v10.9h-3.4v-16.8h3.8l5.3,12.5,5.3-12.5h3.8Z"/>
        <path class="cls-1" d="M123,38.7h-9.7c0,1,.4,1.7,1,2.3s1.3.8,2.2.8c1.2,0,2.1-.5,2.7-1.6h3.6c-.4,1.3-1.1,2.3-2.2,3.2s-2.4,1.2-4,1.2-2.4-.3-3.4-.9c-1-.6-1.8-1.4-2.4-2.4-.6-1-.9-2.2-.9-3.6s.3-2.6.8-3.6c.6-1,1.3-1.8,2.4-2.4,1-.6,2.2-.8,3.5-.8s2.4.3,3.4.8c1,.5,1.8,1.3,2.3,2.3.6,1,.8,2.1.8,3.4s0,.9,0,1.3ZM119.6,36.4c0-.9-.3-1.6-.9-2.1-.6-.5-1.4-.8-2.2-.8s-1.5.3-2.1.8c-.6.5-.9,1.2-1,2.1h6.3Z"/>
        <path class="cls-1" d="M125.5,34c.5-1,1.3-1.8,2.2-2.4.9-.6,2-.8,3.1-.8s1.7.2,2.5.6c.8.4,1.4.9,1.9,1.5v-6.3h3.4v17.8h-3.4v-2c-.4.7-1,1.2-1.8,1.6-.8.4-1.6.6-2.6.6s-2.1-.3-3.1-.9c-.9-.6-1.7-1.4-2.2-2.4s-.8-2.3-.8-3.6.3-2.5.8-3.6ZM134.7,35.6c-.3-.6-.8-1-1.3-1.3-.5-.3-1.1-.5-1.8-.5s-1.2.2-1.7.5c-.5.3-1,.7-1.3,1.3-.3.6-.5,1.3-.5,2.1s.2,1.5.5,2.1c.3.6.8,1.1,1.3,1.4s1.1.5,1.7.5,1.2-.2,1.8-.5c.5-.3,1-.8,1.3-1.3.3-.6.5-1.3.5-2.1s-.2-1.5-.5-2.1Z"/>
        <path class="cls-1" d="M144,43.9c-.9-.4-1.5-.9-2.1-1.6s-.8-1.4-.8-2.2h3.4c0,.5.3.9.8,1.3.4.3,1,.5,1.6.5s1.1-.1,1.5-.4c.4-.3.5-.6.5-1s-.2-.8-.7-1c-.4-.2-1.1-.5-2.1-.7-1-.2-1.8-.5-2.4-.7-.6-.3-1.2-.6-1.6-1.2-.5-.5-.7-1.2-.7-2.1s.2-1.4.6-2,1-1.1,1.8-1.4c.8-.4,1.7-.5,2.8-.5,1.6,0,2.8.4,3.8,1.2s1.5,1.9,1.6,3.2h-3.2c0-.5-.3-.9-.7-1.3-.4-.3-.9-.5-1.6-.5s-1.1.1-1.4.3c-.3.2-.5.5-.5.9s.2.8.7,1c.4.2,1.1.5,2.1.7,1,.2,1.8.5,2.4.7s1.2.7,1.6,1.2.7,1.2.7,2.1c0,.8-.2,1.5-.6,2.1-.4.6-1,1.1-1.8,1.4s-1.7.5-2.8.5-2.1-.2-2.9-.6Z"/>
      </g>
      <path class="cls-1" d="M16.1,41.6c-3.9,0-7.2-1.4-10-4.1-2.7-2.7-4.1-6-4.1-10s.9-6,2.8-8.5c1.9-2.5,4.3-4.2,7.3-5-.7-.2-1.3-.4-2-.7s-1.2-.7-1.7-1.2c-1.1-1.1-1.8-2.4-2.1-3.9s-.4-3.1-.2-4.6c1.6-.2,3.1,0,4.6.2,1.5.3,2.8,1,3.9,2.1.8.8,1.3,1.6,1.7,2.6s.6,2,.7,3.1c.4-1,1-2,1.6-2.9s1.3-1.8,2.1-2.5.8-.6,1.4-.6,1,.2,1.4.6.6.8.6,1.4-.2,1-.6,1.4c-.7.7-1.4,1.5-2,2.4s-1,1.8-1.3,2.8c2.9.9,5.3,2.6,7.1,5.1s2.7,5.2,2.7,8.3-1.4,7.2-4.1,10c-2.7,2.7-6,4.1-10,4.1ZM16.1,37.6c2.8,0,5.1-1,7.1-2.9s2.9-4.3,2.9-7.1-1-5.1-2.9-7.1-4.3-2.9-7.1-2.9-5.1,1-7.1,2.9-2.9,4.3-2.9,7.1,1,5.1,2.9,7.1,4.3,2.9,7.1,2.9Z"/>
    </g>
  </g>
</svg>